<?xml version="1.0" encoding="iso-8859-1"?>
<!-- Generator: Adobe Illustrator 18.0.0, SVG Export Plug-In . SVG Version: 6.00 Build 0)  -->
<!DOCTYPE svg PUBLIC "-//W3C//DTD SVG 1.1//EN" "http://www.w3.org/Graphics/SVG/1.1/DTD/svg11.dtd">
<svg version="1.1" id="Capa_1" xmlns="http://www.w3.org/2000/svg" xmlns:xlink="http://www.w3.org/1999/xlink" x="0px" y="0px"
	 viewBox="0 0 483.098 483.098" style="enable-background:new 0 0 483.098 483.098;" xml:space="preserve">
<g id="XMLID_391_">
	<path id="XMLID_395_" d="M454.729,406.796l-100.379-46.33c40.336-59.364,57.383-126.733,57.383-176.366
		c0-101.431-70.545-183.957-157.257-183.957c-86.699,0-157.226,82.526-157.226,183.957c0,31.202,6.68,62.59,13.144,92.958
		c6.04,28.321,12.128,57.257,12.928,86.461l-94.794,43.324C11.149,414.799,0,432.16,0,451.27c0,17.503,14.184,31.685,31.687,31.685
		h419.601c17.564,0,31.81-14.248,31.81-31.811C483.098,432.1,472.028,414.783,454.729,406.796z M254.477,32.348
		c68.945,0,125.053,68.076,125.053,151.752c0,83.318-52.809,222.726-198.307,265.344c-8.397,2.515-17.644,0.222-23.998-5.771
		c-6.384-6.039-9.086-15.08-7.091-23.619c12.412-52.81,1.902-102.063-8.237-149.695c-6.402-30.069-12.441-58.452-12.441-86.259
		C129.455,100.424,185.533,32.348,254.477,32.348z"/>
	<path id="XMLID_394_" d="M185.44,217.204c40.509-16.37,49.725-51.001,49.725-69.477c0-24.751-16.887-44.833-37.708-44.833
		c-20.82,0-37.683,20.082-37.683,44.833c0,13.979,0.032,26.247-4.906,40.444c-2.955,8.59-0.628,18.105,5.946,24.346
		C167.39,218.778,177.012,220.603,185.44,217.204z"/>
	<path id="XMLID_393_" d="M206.938,286.24c0,20.365,0.061,37.066-15.175,61.459c-2.124,3.38-2.094,7.674,0.062,11.036
		c2.136,3.351,6.02,5.177,9.973,4.689c66.926-8.415,80.531-54.71,80.531-77.184c0-24.752-16.874-44.834-37.695-44.834
		C223.812,241.406,206.938,261.488,206.938,286.24z"/>
	<path id="XMLID_392_" d="M316.058,217.204c8.397,3.398,18.02,1.574,24.613-4.687c6.588-6.241,8.902-15.756,5.928-24.346
		c-4.906-14.197-4.875-26.465-4.875-40.444c0-24.751-16.893-44.833-37.713-44.833c-20.82,0-37.677,20.082-37.677,44.833
		C266.333,166.203,275.518,200.834,316.058,217.204z"/>
</g>
<g>
</g>
<g>
</g>
<g>
</g>
<g>
</g>
<g>
</g>
<g>
</g>
<g>
</g>
<g>
</g>
<g>
</g>
<g>
</g>
<g>
</g>
<g>
</g>
<g>
</g>
<g>
</g>
<g>
</g>
</svg>
